<svg id="positively" xmlns="http://www.w3.org/2000/svg" viewBox="0 0 1004.43 357.06"><title>Positively</title><path d="M155.54,373.13c-7.93,0-18.5-12.22-18.5-23.45,0-14.53,31.71-46.9,74.65-46.9,43.93,0,74.65,30.72,74.65,80.93,0,44.92-27.42,93.48-87.53,93.48h-3.63c-5.28,23.45-9.58,42.94-11.23,53.18-0.66,3.63-4.29,5.29-8.59,5.29-7.27,0-15.85-4.29-15.85-11.23,0-15.52,3.63-34,6.61-51.53-6.94-1.65-10.57-5.28-10.57-7.93,0-1.65,1.65-3,5-3a22.63,22.63,0,0,1,7.27,1.32,1011.06,1011.06,0,0,1,28.74-123.54c1.32-5,5.29-6.94,9.91-6.94,9.25,0,21.14,7.93,21.14,16.19a5.63,5.63,0,0,1-.33,2.31c-9.58,35-20.15,76.63-28.74,112,38-10.57,63.75-57.8,63.75-100.41,0-13.54-2.31-26.75-7.6-38.32A55.33,55.33,0,0,0,229.85,319c-26.09,0-53.84,19.16-67.38,49.22C160.82,371.81,158.51,373.13,155.54,373.13Z" transform="translate(-137.04 -285.27)"/><path d="M368.91,496.67c-12.88,22.79-30.39,39-49.22,39-26.42,0-37.32-24.77-37.32-55.16a159.71,159.71,0,0,1,14.86-66.39c2.64-5.95,8.26-13.87,16.52-12.55,6.28-20.81,19.82-36.66,40.63-36.66,26.42,0,37.32,22.46,37.32,50.87,0,22.79-6.61,49.22-17.51,71.35,11.89-.33,24.44-5.95,32.37-20.81,2-3.3,3.63-5.62,5.95-5.62a2,2,0,0,1,2,2.31,17.67,17.67,0,0,1-1.32,5.95C408.88,481.14,391.37,496.67,368.91,496.67Zm-22.13-3.3c-17.51-5.95-27.42-19.49-32.7-35.34a149.59,149.59,0,0,0-3.63,31c0,17.51,4.29,30.72,15.19,30.72a9.15,9.15,0,0,0,3-.33C334.89,518.47,341.16,508.23,346.78,493.36Zm-17.51-59.79c0,19.49,5.95,39,21.47,48.23,7.27-23.45,12.55-53.18,12.55-74.65,0-17.18-3-29.73-10.9-29.73C341.16,377.43,329.27,404.84,329.27,433.58Z" transform="translate(-137.04 -285.27)"/><path d="M379.48,501c0-10.24,6.61-23.78,18.5-21.14,16.52-25.1,34.35-62.43,43.93-82.91a76.17,76.17,0,0,1-5-26.42c0-22.13,10.24-40,22.79-40,7.93,0,12.22,5.62,12.22,14.86,0,12.22-6.94,31.38-20.81,53.51,7.27,23.78,25.43,56.48,25.43,82.91,0,11.56-2.31,22.79-7.93,32.37,13.21-9.91,17.84-22.46,32.37-47.89,2-3.63,4-5.29,5.62-5.29,1.32,0,2,1.32,2,3.63a16.31,16.31,0,0,1-1,5c-17.18,42.28-35.67,66.06-78.28,66.06C392.36,535.64,379.48,516.82,379.48,501Zm26.75-16.52c3.63,4,3.3,10.24,3.3,26.75,0,10.9,3.63,16.85,11.56,16.85,10.9,0,24.11-11.23,24.11-52.85,0-11.23-1.32-33.69-2.31-53.84C432.32,445.8,416.14,469.91,406.23,484.45Z" transform="translate(-137.04 -285.27)"/><path d="M525.14,502.61c0,6.94,1.65,10.9,5.95,10.9,12.22,0,30.39-40,34-47.23,2-3.63,4-5.62,5.62-5.62,1.32,0,2.31,1.32,2.31,3.3a13.62,13.62,0,0,1-1.32,5.62c-4.62,11.56-23.78,65.73-51.53,65.73-12.88,0-23.78-9.25-23.78-34,0-19.82,12.55-80.93,25.76-129.48,1.65-5.62,6.94-8.59,13.21-8.59,8.26,0,17.18,5.62,17.18,16.85C552.55,397.58,525.14,477.18,525.14,502.61Zm0.66-170.44c0-14.2,11.56-32.7,29.73-32.7,13.54,0,19.49,7.93,19.49,17.18,0,13.87-13.54,31.38-34.35,31.38C530.42,348,525.8,340.76,525.8,332.18Z" transform="translate(-137.04 -285.27)"/><path d="M586.57,365.87c4-14.86,7.93-29.07,12.22-42.61,1.65-5.62,7.27-8.26,13.54-8.26,8.26,0,17.18,5.29,17.18,16.52,0,8.26-5,22.79-8.59,36,16.19,1.32,31.38,2.31,31.38,6.94S640.08,382.38,616,385c-12.55,43.6-28.08,94.8-28.08,118.58,0,8.59,2,13.87,6.94,13.87,12.88,0,29.73-36.33,39-51.2,2.31-4,4-5.95,5.62-5.95,1.32,0,2.31,1.32,2.31,3.63a14.82,14.82,0,0,1-1.32,5.62c-4.62,11.56-27.42,65.73-55.16,65.73-12.88,0-23.78-9.25-23.78-34,0-21.8,8.26-68.37,19.82-115.61l-10.57-1c-4-.33-5.62-4.62-5.62-8.92,0-5,2.31-10.24,5.95-10.24C576,365.54,581.29,365.54,586.57,365.87Z" transform="translate(-137.04 -285.27)"/><path d="M657.91,502.61c0,6.94,1.65,10.9,5.95,10.9,12.22,0,30.39-40,34-47.23,2-3.63,4-5.62,5.62-5.62,1.32,0,2.31,1.32,2.31,3.3a13.63,13.63,0,0,1-1.32,5.62c-4.62,11.56-23.78,65.73-51.53,65.73-12.88,0-23.78-9.25-23.78-34,0-19.82,12.55-80.93,25.76-129.48,1.65-5.62,6.94-8.59,13.21-8.59,8.26,0,17.18,5.62,17.18,16.85C685.33,397.58,657.91,477.18,657.91,502.61Zm0.66-170.44c0-14.2,11.56-32.7,29.73-32.7,13.54,0,19.49,7.93,19.49,17.18,0,13.87-13.54,31.38-34.35,31.38C663.2,348,658.57,340.76,658.57,332.18Z" transform="translate(-137.04 -285.27)"/><path d="M720,504.27c0,9.58,2.31,16.19,8.59,16.19,10.24,0,22.79-29.73,34-62.76-4.29-7.27-6.28-17.18-6.28-27.75,0-31.38,16.85-69.69,34-69.69,5.95,0,13.21,3.63,13.21,18.83,0,17.18-9.25,48.89-20.15,77.29a23,23,0,0,0,8.26,1.65c18.17,0,34.68-24.77,42.28-43.6,1.32-3.63,3-5,4.29-5s2,1.65,2,4a11.25,11.25,0,0,1-.33,3.3c-6.94,22.46-26.75,54.5-52.52,54.5a29.24,29.24,0,0,1-9.58-1.32c-15.19,35.34-35.67,65.4-57.14,65.4-18.17,0-24.44-19.82-24.44-46.9,0-37.32,11.89-87.86,19.82-116.6,1.65-5.62,6.94-8.59,13.21-8.59,8.26,0,17.18,5.62,17.18,16.85C746.43,397.58,720,473.22,720,504.27Z" transform="translate(-137.04 -285.27)"/><path d="M915.54,401.54c0,31.71-23.78,76.3-58.79,76.3a43.13,43.13,0,0,1-12.55-2c0,14.53,1.32,39.64,21.8,39.64,31.38,0,48.22-35.67,56.81-49.22,2-3.3,3.63-4.62,5.29-4.62,1.32,0,2.31,1.32,2.31,3.3a13,13,0,0,1-1,4.62c-14.86,37-38,66.06-76,66.06-28.41,0-40-25.76-40-57.14,0-49.22,28.41-113,63.09-113,7.27,0,14.86,2.31,18.83,5.62C909.27,372.8,915.54,385.35,915.54,401.54Zm-68,65.73c19.49,0,47.56-52.19,47.56-78,0-5.29-.66-10.9-5.62-10.9-18.83,0-40.63,48.89-44.59,88.52A7.28,7.28,0,0,0,847.5,467.27Z" transform="translate(-137.04 -285.27)"/><path d="M1004.39,291.88c8.59,5,14.53,11.23,14.53,33.36,0,45.58-25.1,131.13-65.07,127.17-2.64,16.85-4.29,31.71-4.29,41.95,0,14.2,4,20.81,13.21,20.81,17.51,0,38-25.76,49.55-48.89,1.65-3.63,3.63-5,5.28-5,1.32,0,2.31,1.32,2.31,3.63a14.55,14.55,0,0,1-1,4.62c-10.24,25.43-38.65,66.72-67.05,66.72-22.46,0-30.06-20.15-30.06-49.88,0-18.83,3-41.62,7.6-65.4,12.22-66.06,31.71-135.76,61.77-135.76A16.63,16.63,0,0,1,1004.39,291.88Zm-49.22,152.6c26.75-21.8,45.25-93.15,45.25-131.79a89.65,89.65,0,0,0-1-14.2C987.55,302.12,965.42,384,955.18,444.48Z" transform="translate(-137.04 -285.27)"/><path d="M995.14,610c0-36.33,35-49.88,68.37-70.36,1.32-9.91,3-20.81,5-32.37-8.59,17.84-19.82,28.08-33.69,28.08-19.82,0-26.42-13.87-26.42-34.68,0-33.36,16.52-84.23,23.78-124.86,1-6.61,5.95-9.25,11.89-9.25,8.59,0,18.5,6.28,18.5,14.53,0,11.56-5.29,28.41-9.25,46.24-6.61,29.07-13.54,60.12-13.54,73,0,7.93,2,12.55,6.94,12.55,17.84,0,24.44-38.32,39-94.8,5.29-24.77,9.25-42.28,9.25-42.28,1.32-5.62,6.61-8.26,12.22-8.26,8.26,0,17.51,5.28,17.51,12.88,0,8.92-5.29,12.55-26.42,133.77a157.08,157.08,0,0,0,35.34-47.89c1.65-3.63,4.29-5.95,5.95-5.95,1.32,0,2,1,2,3.3a17.7,17.7,0,0,1-1.32,5.95c-12.22,30.72-28.74,50.87-45.58,65.73-14.86,78.28-39.64,107-65.73,107C1012.65,642.33,995.14,628.13,995.14,610Zm26.09,22.13c31,0,37-50.21,39.64-72C1037.42,575,1009,590.81,1009,617.23c0,7.27,4,11.56,8.92,14.53A10.19,10.19,0,0,0,1021.24,632.09Z" transform="translate(-137.04 -285.27)"/></svg>